<svg width="786.4px" height="159.7px" xmlns="http://www.w3.org/2000/svg" viewBox="-143.17620849609375 -4.8360595703125 786.3524169921875 159.672119140625" style="background: rgba(0, 0, 0, 0)" preserveAspectRatio="xMidYMid"><defs><linearGradient id="editing-gradient-gradient" x1="0" x2="1" y1="0.5" y2="0.5" gradientUnits="objectBoundingBox"><stop offset="0" stop-color="#dd7ac9"></stop><stop offset="1" stop-color="#6dc7c7"></stop></linearGradient></defs><g><g transform="matrix(1.4,0,0,1.6,-156.5,190.6)"><path d="M 39.8 -44.6 L 13.8 -44.6 L 13.8 -55.6 L 18.8 -55.6 L 18.8 -83.3 L 13.8 -83.3 L 13.8 -94.3 L 39.8 -94.3 L 39.8 -83.3 L 34.8 -83.3 L 34.8 -55.6 L 39.8 -55.6 L 39.8 -44.6 Z M 107.5 -53.6 L 111.8 -53.6 L 111.8 -44.6 L 92.5 -44.6 L 92.5 -65.9 L 92.5 -65.9 Q 92.5 -67.2 91.6 -68.2 L 91.6 -68.2 L 91.6 -68.2 Q 90.8 -69.3 89.5 -69.3 L 89.5 -69.3 L 89.5 -69.3 Q 87.2 -69.3 86.6 -67 L 86.6 -67 L 86.6 -67 Q 86 -64.7 86 -60.4 L 86 -60.4 L 86 -44.6 L 71 -44.6 L 71 -65.9 L 71 -65.9 Q 71 -67.2 70.2 -68.2 L 70.2 -68.2 L 70.2 -68.2 Q 69.3 -69.3 68.1 -69.3 L 68.1 -69.3 L 68.1 -69.3 Q 65.8 -69.3 65.2 -67 L 65.2 -67 L 65.2 -67 Q 64.6 -64.7 64.6 -60.4 L 64.6 -60.4 L 64.6 -53.6 L 64.6 -53.6 L 64.6 -44.6 L 45.1 -44.6 L 45.1 -53.6 L 49.7 -53.6 L 49.7 -68.4 L 45.1 -68.4 L 45.1 -76.8 L 64.6 -78.7 L 64.6 -74 L 64.6 -74 Q 66.8 -76.6 69.5 -77.6 L 69.5 -77.6 L 69.5 -77.6 Q 72.3 -78.7 75.7 -78.7 L 75.7 -78.7 L 75.7 -78.7 Q 82.8 -78.7 85 -72.7 L 85 -72.7 L 85 -72.7 Q 87.3 -75.9 90.3 -77.3 L 90.3 -77.3 L 90.3 -77.3 Q 93.3 -78.7 97.2 -78.7 L 97.2 -78.7 L 97.2 -78.7 Q 107.5 -78.7 107.5 -65.8 L 107.5 -65.8 L 107.5 -53.6 Z M 126.5 -44 L 126.5 -44 Q 123.4 -44 120.8 -45.2 L 120.8 -45.2 L 120.8 -45.2 Q 118.2 -46.5 116.6 -48.8 L 116.6 -48.8 L 116.6 -48.8 Q 115 -51.1 115 -54.2 L 115 -54.2 L 115 -54.2 Q 115 -57.5 116.8 -59.8 L 116.8 -59.8 L 116.8 -59.8 Q 118.7 -62 121.7 -63.1 L 121.7 -63.1 L 121.7 -63.1 Q 124.7 -64.3 128.1 -64.3 L 128.1 -64.3 L 128.1 -64.3 Q 132.2 -64.3 136 -63.1 L 136 -63.1 L 136 -64.5 L 136 -64.5 Q 136 -67 133.9 -68.3 L 133.9 -68.3 L 133.9 -68.3 Q 131.8 -69.6 128.2 -69.6 L 128.2 -69.6 L 128.2 -69.6 Q 125.9 -69.6 122.9 -68.7 L 122.9 -68.7 L 122.9 -68.7 Q 119.9 -67.9 117.9 -66.7 L 117.9 -66.7 L 117 -67.1 L 117 -76.2 L 117 -76.2 Q 120.8 -77.5 124.7 -78.1 L 124.7 -78.1 L 124.7 -78.1 Q 128.6 -78.7 132 -78.7 L 132 -78.7 L 132 -78.7 Q 151 -78.7 151 -68 L 151 -68 L 151 -54 L 154 -54 L 154 -44.6 L 138 -44.6 L 136.6 -49.7 L 136.6 -49.7 Q 135.2 -47.1 132.4 -45.5 L 132.4 -45.5 L 132.4 -45.5 Q 129.5 -44 126.5 -44 L 126.5 -44 Z M 132.4 -52 L 132.4 -52 Q 133.4 -52 134.5 -52.3 L 134.5 -52.3 L 134.5 -52.3 Q 135.6 -52.7 136 -53.1 L 136 -53.1 L 136 -58.3 L 136 -58.3 Q 135.6 -58.4 134.5 -58.7 L 134.5 -58.7 L 134.5 -58.7 Q 133.4 -59 132.7 -59 L 132.7 -59 L 132.7 -59 Q 131 -59 130 -57.9 L 130 -57.9 L 130 -57.9 Q 129 -56.9 129 -55.2 L 129 -55.2 L 129 -55.2 Q 129 -53.9 130 -52.9 L 130 -52.9 L 130 -52.9 Q 130.9 -52 132.4 -52 L 132.4 -52 Z M 176.7 -32.4 L 176.7 -32.4 Q 170.1 -32.4 162.6 -34.3 L 162.6 -34.3 L 162.6 -43.3 L 162.6 -43.3 Q 166.8 -42.1 169.5 -41.4 L 169.5 -41.4 L 169.5 -41.4 Q 172.2 -40.7 174.9 -40.7 L 174.9 -40.7 L 174.9 -40.7 Q 182.4 -40.7 182.4 -48.2 L 182.4 -48.2 L 182.4 -48.2 Q 180.7 -46.7 178.2 -45.6 L 178.2 -45.6 L 178.2 -45.6 Q 175.7 -44.6 172.6 -44.6 L 172.6 -44.6 L 172.6 -44.6 Q 168 -44.6 164.9 -46.8 L 164.9 -46.8 L 164.9 -46.8 Q 161.7 -49.1 160.2 -52.9 L 160.2 -52.9 L 160.2 -52.9 Q 158.6 -56.8 158.6 -61.5 L 158.6 -61.5 L 158.6 -61.5 Q 158.6 -66.3 160.2 -70.2 L 160.2 -70.2 L 160.2 -70.2 Q 161.8 -74.1 164.9 -76.4 L 164.9 -76.4 L 164.9 -76.4 Q 168.1 -78.7 172.6 -78.7 L 172.6 -78.7 L 172.6 -78.7 Q 178.7 -78.7 182.4 -73.4 L 182.4 -73.4 L 184.6 -78 L 200.6 -78 L 200.6 -68.4 L 197.6 -68.4 L 197.6 -48.8 L 197.6 -48.8 Q 197.6 -40.7 191.9 -36.5 L 191.9 -36.5 L 191.9 -36.5 Q 186.2 -32.4 176.7 -32.4 L 176.7 -32.4 Z M 178.4 -53.1 L 178.4 -53.1 Q 179.9 -53.1 181.1 -54 L 181.1 -54 L 181.1 -54 Q 182.3 -54.9 182.6 -55.8 L 182.6 -55.8 L 182.6 -67.2 L 182.6 -67.2 Q 182 -68.3 180.9 -68.9 L 180.9 -68.9 L 180.9 -68.9 Q 179.7 -69.5 178.2 -69.5 L 178.2 -69.5 L 178.2 -69.5 Q 175.6 -69.5 174.1 -67.3 L 174.1 -67.3 L 174.1 -67.3 Q 172.6 -65.1 172.6 -61.3 L 172.6 -61.3 L 172.6 -61.3 Q 172.6 -57.6 174.1 -55.4 L 174.1 -55.4 L 174.1 -55.4 Q 175.6 -53.1 178.4 -53.1 L 178.4 -53.1 Z M 223.8 -44 L 223.8 -44 Q 218 -44 213.7 -46.1 L 213.7 -46.1 L 213.7 -46.1 Q 209.4 -48.3 207.1 -52.2 L 207.1 -52.2 L 207.1 -52.2 Q 204.8 -56.2 204.8 -61.5 L 204.8 -61.5 L 204.8 -61.5 Q 204.8 -66.8 207 -70.6 L 207 -70.6 L 207 -70.6 Q 209.3 -74.5 213.4 -76.6 L 213.4 -76.6 L 213.4 -76.6 Q 217.4 -78.7 222.9 -78.7 L 222.9 -78.7 L 222.9 -78.7 Q 227.9 -78.7 231.8 -76.7 L 231.8 -76.7 L 231.8 -76.7 Q 235.6 -74.7 237.7 -71.1 L 237.7 -71.1 L 237.7 -71.1 Q 239.8 -67.4 239.8 -62.5 L 239.8 -62.5 L 239.8 -62.5 Q 239.8 -60.9 239.3 -59.3 L 239.3 -59.3 L 219.8 -59.3 L 219.8 -59.3 Q 219.8 -56.4 222.1 -54.6 L 222.1 -54.6 L 222.1 -54.6 Q 224.3 -52.9 227.4 -52.9 L 227.4 -52.9 L 227.4 -52.9 Q 229.8 -52.9 232.6 -53.7 L 232.6 -53.7 L 232.6 -53.7 Q 235.5 -54.5 238.3 -56.3 L 238.3 -56.3 L 238.9 -56.1 L 238.9 -47.7 L 238.9 -47.7 Q 235.7 -45.8 232.3 -44.9 L 232.3 -44.9 L 232.3 -44.9 Q 228.9 -44 223.8 -44 L 223.8 -44 Z M 219.8 -64.8 L 227.8 -64.8 L 227.8 -65.5 L 227.8 -65.5 Q 227.8 -67.7 226.8 -69.3 L 226.8 -69.3 L 226.8 -69.3 Q 225.8 -70.9 223.8 -70.9 L 223.8 -70.9 L 223.8 -70.9 Q 222.2 -70.9 221 -69.3 L 221 -69.3 L 221 -69.3 Q 219.8 -67.7 219.8 -65.7 L 219.8 -65.7 L 219.8 -64.8 Z M 262.9 -44 L 262.9 -44 Q 256.5 -44 251.5 -47.4 L 251.5 -47.4 L 250.5 -44.6 L 244.7 -44.6 L 244.7 -56.9 L 251.7 -56.9 L 251.7 -56.9 Q 252 -54.5 253.9 -52.7 L 253.9 -52.7 L 253.9 -52.7 Q 255.7 -50.8 258.1 -50.8 L 258.1 -50.8 L 258.1 -50.8 Q 259 -50.8 259.6 -51.3 L 259.6 -51.3 L 259.6 -51.3 Q 260.3 -51.8 260.3 -52.9 L 260.3 -52.9 L 260.3 -52.9 Q 260.3 -54.1 259 -55 L 259 -55 L 259 -55 Q 257.7 -55.9 255 -57.2 L 255 -57.2 L 255 -57.2 Q 251.8 -58.8 249.7 -60.1 L 249.7 -60.1 L 249.7 -60.1 Q 247.7 -61.5 246.2 -63.6 L 246.2 -63.6 L 246.2 -63.6 Q 244.7 -65.7 244.7 -68.7 L 244.7 -68.7 L 244.7 -68.7 Q 244.7 -71.9 246.7 -74.1 L 246.7 -74.1 L 246.7 -74.1 Q 248.7 -76.4 252 -77.5 L 252 -77.5 L 252 -77.5 Q 255.4 -78.7 259.3 -78.7 L 259.3 -78.7 L 259.3 -78.7 Q 264.4 -78.7 268.7 -76 L 268.7 -76 L 269.5 -78 L 274.7 -78 L 274.7 -68 L 268.7 -68 L 268.7 -68 Q 267.9 -70.1 266.4 -71.2 L 266.4 -71.2 L 266.4 -71.2 Q 265 -72.4 263 -72.4 L 263 -72.4 L 263 -72.4 Q 261.9 -72.4 261.3 -72.1 L 261.3 -72.1 L 261.3 -72.1 Q 260.7 -71.8 260.7 -70.9 L 260.7 -70.9 L 260.7 -70.9 Q 260.7 -69.9 261.9 -69.2 L 261.9 -69.2 L 261.9 -69.2 Q 263 -68.5 265.7 -67.3 L 265.7 -67.3 L 265.7 -67.3 Q 269.1 -65.9 271.2 -64.7 L 271.2 -64.7 L 271.2 -64.7 Q 273.4 -63.4 275 -61 L 275 -61 L 275 -61 Q 276.7 -58.7 276.7 -55.2 L 276.7 -55.2 L 276.7 -55.2 Q 276.7 -51.6 274.8 -49.1 L 274.8 -49.1 L 274.8 -49.1 Q 272.8 -46.5 269.7 -45.3 L 269.7 -45.3 L 269.7 -45.3 Q 266.6 -44 262.9 -44 L 262.9 -44 Z M 322.7 -43.7 L 322.7 -43.7 Q 315.1 -43.7 308.8 -46.5 L 308.8 -46.5 L 308.8 -46.5 Q 302.5 -49.3 298.7 -55.2 L 298.7 -55.2 L 298.7 -55.2 Q 294.9 -61.2 294.9 -70.2 L 294.9 -70.2 L 294.9 -70.2 Q 294.9 -77.4 297.9 -83.1 L 297.9 -83.1 L 297.9 -83.1 Q 300.9 -88.8 306.5 -92 L 306.5 -92 L 306.5 -92 Q 312.2 -95.2 319.9 -95.2 L 319.9 -95.2 L 319.9 -95.2 Q 323.1 -95.2 326.2 -94.2 L 326.2 -94.2 L 326.2 -94.2 Q 329.3 -93.1 331.1 -91 L 331.1 -91 L 332.1 -94.3 L 342.9 -94.3 L 342.9 -75.9 L 333.3 -75.9 L 333.3 -75.9 Q 332.3 -79.9 329.5 -81.9 L 329.5 -81.9 L 329.5 -81.9 Q 326.8 -83.9 323.8 -83.9 L 323.8 -83.9 L 323.8 -83.9 Q 318.8 -83.9 315.9 -80.3 L 315.9 -80.3 L 315.9 -80.3 Q 313 -76.6 313 -70.2 L 313 -70.2 L 313 -70.2 Q 313 -63.8 315.8 -60.1 L 315.8 -60.1 L 315.8 -60.1 Q 318.7 -56.4 324 -56.4 L 324 -56.4 L 324 -56.4 Q 325.3 -56.4 326.7 -56.7 L 326.7 -56.7 L 326.7 -56.7 Q 328 -56.9 328.8 -57.2 L 328.8 -57.2 L 328.8 -57.2 Q 329.7 -57.5 329.9 -57.5 L 329.9 -57.5 L 329.9 -62 L 323.9 -62 L 323.9 -71.2 L 343.9 -71.2 L 343.9 -48.9 L 343.9 -48.9 Q 339.1 -46.3 333.6 -45 L 333.6 -45 L 333.6 -45 Q 328.1 -43.7 322.7 -43.7 L 322.7 -43.7 Z M 360.7 -44 L 360.7 -44 Q 357.6 -44 355 -45.2 L 355 -45.2 L 355 -45.2 Q 352.3 -46.5 350.8 -48.8 L 350.8 -48.8 L 350.8 -48.8 Q 349.2 -51.1 349.2 -54.2 L 349.2 -54.2 L 349.2 -54.2 Q 349.2 -57.5 351 -59.8 L 351 -59.8 L 351 -59.8 Q 352.8 -62 355.8 -63.1 L 355.8 -63.1 L 355.8 -63.1 Q 358.9 -64.3 362.3 -64.3 L 362.3 -64.3 L 362.3 -64.3 Q 366.4 -64.3 370.2 -63.1 L 370.2 -63.1 L 370.2 -64.5 L 370.2 -64.5 Q 370.2 -67 368.1 -68.3 L 368.1 -68.3 L 368.1 -68.3 Q 366 -69.6 362.4 -69.6 L 362.4 -69.6 L 362.4 -69.6 Q 360.1 -69.6 357.1 -68.7 L 357.1 -68.7 L 357.1 -68.7 Q 354.1 -67.9 352.1 -66.7 L 352.1 -66.7 L 351.2 -67.1 L 351.2 -76.2 L 351.2 -76.2 Q 355 -77.5 358.9 -78.1 L 358.9 -78.1 L 358.9 -78.1 Q 362.8 -78.7 366.2 -78.7 L 366.2 -78.7 L 366.2 -78.7 Q 385.2 -78.7 385.2 -68 L 385.2 -68 L 385.2 -54 L 388.2 -54 L 388.2 -44.6 L 372.2 -44.6 L 370.8 -49.7 L 370.8 -49.7 Q 369.4 -47.1 366.6 -45.5 L 366.6 -45.5 L 366.6 -45.5 Q 363.7 -44 360.7 -44 L 360.7 -44 Z M 366.6 -52 L 366.6 -52 Q 367.6 -52 368.7 -52.3 L 368.7 -52.3 L 368.7 -52.3 Q 369.8 -52.7 370.2 -53.1 L 370.2 -53.1 L 370.2 -58.3 L 370.2 -58.3 Q 369.7 -58.4 368.7 -58.7 L 368.7 -58.7 L 368.7 -58.7 Q 367.6 -59 366.9 -59 L 366.9 -59 L 366.9 -59 Q 365.2 -59 364.2 -57.9 L 364.2 -57.9 L 364.2 -57.9 Q 363.2 -56.9 363.2 -55.2 L 363.2 -55.2 L 363.2 -55.2 Q 363.2 -53.9 364.1 -52.9 L 364.1 -52.9 L 364.1 -52.9 Q 365.1 -52 366.6 -52 L 366.6 -52 Z M 418.6 -44.6 L 393.3 -44.6 L 393.3 -54 L 398.8 -54 L 398.8 -82.8 L 393.3 -82.8 L 393.3 -91.3 L 413.8 -93.3 L 413.8 -54 L 418.6 -54 L 418.6 -44.6 Z M 449.2 -44.6 L 423.9 -44.6 L 423.9 -54 L 429.4 -54 L 429.4 -82.8 L 423.9 -82.8 L 423.9 -91.3 L 444.4 -93.3 L 444.4 -54 L 449.2 -54 L 449.2 -44.6 Z M 472.6 -44 L 472.6 -44 Q 466.8 -44 462.5 -46.1 L 462.5 -46.1 L 462.5 -46.1 Q 458.2 -48.3 455.9 -52.2 L 455.9 -52.2 L 455.9 -52.2 Q 453.6 -56.2 453.6 -61.5 L 453.6 -61.5 L 453.6 -61.5 Q 453.6 -66.8 455.8 -70.6 L 455.8 -70.6 L 455.8 -70.6 Q 458.1 -74.5 462.1 -76.6 L 462.1 -76.6 L 462.1 -76.6 Q 466.2 -78.7 471.6 -78.7 L 471.6 -78.7 L 471.6 -78.7 Q 476.7 -78.7 480.5 -76.7 L 480.5 -76.7 L 480.5 -76.7 Q 484.4 -74.7 486.5 -71.1 L 486.5 -71.1 L 486.5 -71.1 Q 488.6 -67.4 488.6 -62.5 L 488.6 -62.5 L 488.6 -62.5 Q 488.6 -60.9 488.1 -59.3 L 488.1 -59.3 L 468.6 -59.3 L 468.6 -59.3 Q 468.6 -56.4 470.8 -54.6 L 470.8 -54.6 L 470.8 -54.6 Q 473 -52.9 476.2 -52.9 L 476.2 -52.9 L 476.2 -52.9 Q 478.5 -52.9 481.4 -53.7 L 481.4 -53.7 L 481.4 -53.7 Q 484.2 -54.5 487.1 -56.3 L 487.1 -56.3 L 487.6 -56.1 L 487.6 -47.7 L 487.6 -47.7 Q 484.4 -45.8 481 -44.9 L 481 -44.9 L 481 -44.9 Q 477.6 -44 472.6 -44 L 472.6 -44 Z M 468.6 -64.8 L 476.6 -64.8 L 476.6 -65.5 L 476.6 -65.5 Q 476.6 -67.7 475.6 -69.3 L 475.6 -69.3 L 475.6 -69.3 Q 474.6 -70.9 472.6 -70.9 L 472.6 -70.9 L 472.6 -70.9 Q 470.9 -70.9 469.8 -69.3 L 469.8 -69.3 L 469.8 -69.3 Q 468.6 -67.7 468.6 -65.7 L 468.6 -65.7 L 468.6 -64.8 Z M 493.4 -44.6 L 493.4 -54 L 497.5 -54 L 497.5 -68.4 L 493.4 -68.4 L 493.4 -76.8 L 512.5 -78.7 L 512.5 -73.2 L 512.5 -73.2 Q 513.9 -75.6 517.4 -77.1 L 517.4 -77.1 L 517.4 -77.1 Q 520.8 -78.7 523.5 -78.7 L 523.5 -78.7 L 523.5 -65.4 L 523.5 -65.4 Q 519.8 -66.6 517.4 -66.6 L 517.4 -66.6 L 517.4 -66.6 Q 514.4 -66.6 513.4 -64.9 L 513.4 -64.9 L 513.4 -64.9 Q 512.5 -63.2 512.5 -60.4 L 512.5 -60.4 L 512.5 -54 L 517.4 -54 L 517.4 -44.6 L 493.4 -44.6 Z M 559 -32.8 L 537.4 -32.8 L 537.4 -42.6 L 543.8 -42.6 L 545.5 -45.5 L 530.9 -68.4 L 526.9 -68.4 L 526.9 -78 L 550.3 -78 L 550.3 -68.4 L 547.3 -68.4 L 552.5 -58.8 L 557.2 -68.4 L 553.8 -68.4 L 553.8 -78 L 571.3 -78 L 571.3 -68.4 L 567.9 -68.4 L 554.2 -42.6 L 559 -42.6 L 559 -32.8 Z" fill="url(#editing-gradient-gradient)"></path></g></g><style>text {
  font-size: 64px;
  font-family: Arial Black;
  dominant-baseline: central;
  text-anchor: middle;
}</style></svg>